The concluding chapter in filmmaker Krzysztof Kieslowski's "Three Colors" trilogy, Red stars the luminous Irène Jacob as Valentine, a young student and fashion model who befriends a bitter former judge (Jean-Louis Trintignant, his character a proxy for Kieslowski himself). Their accidental meeting is just one of the many chance encounters woven through the narrative fabric of this feature, the most accomplished effort in Kieslowski's highly ambitious series. Like its predecessors, Red corresponds to a color of the French flag, as well as the color's symbolic attributes. The subject here is fraternity, and indeed, its central characters are all closely connected, their destinies locked on a collision course. The film's final scene even ties up the trilogy by bringing together the protagonists of the other features.

   General
      Complete name : Trois.couleurs.Rouge.1994.720p.BluRay.x264-CiNEFiLE.mkv
      Format : Matroska
      File size : 4.37 GiB
      Duration : 1h 35mn
      Overall bit rate : 6 568 Kbps
      Encoded date : UTC 2011-01-03 17:30:01
      Writing application : mkvmerge v4.4.0 ('Die Wiederkehr') built on Oct 31 2010 21:52:48
      Writing library : libebml v1.0.0 + libmatroska v1.0.0
   Video #1
      ID : 1
      Format : AVC
      Format/Info : Advanced Video Codec
      Format profile : High@L4.1
      Format settings, CABAC : Yes
      Format settings, ReFrames : 5 frames
      Muxing mode : Container profile=Unknown@4.1
      Codec ID : V_MPEG4/ISO/AVC
      Duration : 1h 35mn
      Bit rate : 4 927 Kbps
      Nominal bit rate : 5 064 Kbps
      Width : 1 280 pixels
      Height : 688 pixels
      Display aspect ratio : 1.860
      Frame rate : 25.000 fps
      Resolution : 24 bits
      Colorimetry : 4:2:0
      Scan type : Progressive
      Bits/(Pixel*Frame) : 0.224
      Stream size : 3.28 GiB (75%)
      Writing library : x264 core 112 r1834 a51816a      
   Audio #2
      ID : 2
      Format : DTS
      Format/Info : Digital Theater Systems
      Codec ID : A_DTS
      Duration : 1h 35mn
      Bit rate mode : Constant
      Bit rate : 1 510 Kbps
      Channel(s) : 5 channels
      Channel positions : Front: L C R, Surround: L R
      Sampling rate : 48.0 KHz
      Resolution : 24 bits
      Stream size : 1.00 GiB (23%)
      Language : French
   Text #3
      ID : 3
      Format : UTF-8
      Codec ID : S_TEXT/UTF8
      Codec ID/Info : UTF-8 Plain Text
 
http://www.imdb.com/title/tt0111495

French audio; English (muxed in mkv) and Portuguese subtitles